<svg width="1280" height="720" viewBox="0 0 1280 720" fill="none" xmlns="http://www.w3.org/2000/svg">
<path d="M219 325.5L220.338 324.823L219 325.5ZM447 635L446.847 636.492L447 635ZM518.185 694.259C518.881 694.709 519.809 694.51 520.259 693.815L527.593 682.481C528.043 681.785 527.844 680.856 527.149 680.406C526.453 679.956 525.525 680.155 525.075 680.851L518.556 690.926L508.481 684.407C507.785 683.957 506.856 684.156 506.406 684.851C505.956 685.547 506.155 686.475 506.851 686.925L518.185 694.259ZM251.601 41.4575C238.74 74.612 221.61 128.582 211.998 182.801C207.192 209.911 204.258 237.122 204.691 261.847C205.123 286.551 208.916 308.891 217.661 326.177L220.338 324.823C211.883 308.109 208.118 286.282 207.69 261.794C207.262 237.326 210.166 210.318 214.952 183.324C224.523 129.335 241.592 75.5546 254.398 42.5425L251.601 41.4575ZM217.661 326.177C239.152 368.659 262.734 408.94 278.986 439.701C287.141 455.136 293.451 468.17 296.823 478.002C298.513 482.927 299.427 486.942 299.511 490C299.596 493.074 298.844 494.856 297.593 495.805L299.407 498.195C301.781 496.394 302.607 493.41 302.51 489.918C302.413 486.409 301.386 482.057 299.661 477.029C296.205 466.955 289.796 453.739 281.639 438.299C265.266 407.31 241.847 367.341 220.338 324.823L217.661 326.177ZM297.593 495.805C294.153 498.415 291.818 498.705 290.284 498.225C288.698 497.728 287.398 496.236 286.438 494.028C285.495 491.854 285.006 489.255 284.88 487.07C284.818 485.982 284.848 485.041 284.941 484.347C284.987 483.998 285.045 483.745 285.099 483.581C285.164 483.383 285.183 483.439 285.061 483.561L282.939 481.439C282.567 481.811 282.367 482.285 282.249 482.645C282.119 483.04 282.029 483.486 281.967 483.95C281.843 484.881 281.815 486.018 281.885 487.242C282.025 489.683 282.568 492.646 283.687 495.222C284.79 497.764 286.584 500.21 289.388 501.088C292.244 501.982 295.597 501.085 299.407 498.195L297.593 495.805ZM285.061 483.561C286.124 482.497 289.365 478.893 293.52 476.123C297.745 473.306 302.333 471.739 306.301 473.827L307.699 471.173C302.167 468.261 296.255 470.694 291.855 473.627C287.385 476.607 283.876 480.503 282.939 481.439L285.061 483.561ZM306.301 473.827C307.539 474.479 309.212 475.234 311.121 476.091C313.048 476.956 315.25 477.94 317.609 479.071C322.33 481.335 327.624 484.162 332.421 487.706C342.025 494.802 349.358 504.531 346.531 518.196L349.469 518.804C352.642 503.469 344.225 492.698 334.204 485.294C329.188 481.588 323.702 478.665 318.906 476.366C316.507 475.216 314.269 474.216 312.35 473.354C310.413 472.485 308.836 471.771 307.699 471.173L306.301 473.827ZM346.531 518.196C344.969 525.746 345.576 536.395 348.513 548.175C351.458 559.984 356.771 573.043 364.738 585.436C380.682 610.238 407.304 632.437 446.847 636.492L447.153 633.508C408.696 629.563 382.818 608.012 367.262 583.814C359.479 571.707 354.292 558.954 351.424 547.45C348.549 535.917 348.031 525.754 349.469 518.804L346.531 518.196ZM446.847 636.492C477.657 639.652 494.904 652.208 504.655 664.698C514.442 677.234 516.789 689.839 517.533 693.314L520.467 692.686C519.711 689.161 517.258 675.966 507.02 662.852C496.746 649.692 478.743 636.748 447.153 633.508L446.847 636.492Z" fill="white"/>
</svg>
