<svg width="579" height="411" viewBox="0 0 579 411" fill="none" xmlns="http://www.w3.org/2000/svg">
<path d="M572.425 177.173C513.498 279.044 442.643 318.437 346.657 402.941H232.768C135.185 316.888 62.7352 272.626 7 177.173M569.745 185.213C494.677 77.4617 437.015 9.20069 289.712 8.34991C142.41 9.20069 84.0782 78.1316 9.0098 185.883" stroke="white" stroke-width="14.7386"/>
<path d="M57.245 121.569L290.291 402.941C171.622 157.594 126.151 80.4891 93.3302 81.819C80.8541 93.8002 68.9767 107.089 57.245 121.569Z" fill="white"/>
<path d="M57.245 121.569L290.291 402.941C171.622 157.594 126.151 80.4891 93.3302 81.819M57.245 121.569C68.9767 107.089 80.8541 93.8002 93.3302 81.819M57.245 121.569L93.3302 81.819" stroke="white" stroke-width="12.0588"/>
<path d="M56.4634 119.418L91.5947 90.0168L132.755 139.198L97.6233 168.599L56.4634 119.418Z" fill="white"/>
<path d="M94.7615 161.251L123.743 140.327L183.328 222.857L154.346 243.781L94.7615 161.251Z" fill="white"/>
<path d="M158.685 235.589L174.802 223.953L241.209 315.932L225.092 327.568L158.685 235.589Z" fill="white"/>
<path d="M158.685 235.589L174.802 223.953L250.739 329.131L234.622 340.767L158.685 235.589Z" fill="white"/>
<path d="M523.759 121.569L290.713 402.941C409.382 157.594 454.853 80.4891 487.674 81.819C500.15 93.8002 512.027 107.089 523.759 121.569Z" fill="white"/>
<path d="M523.759 121.569L290.713 402.941C409.382 157.594 454.853 80.4891 487.674 81.819M523.759 121.569C512.027 107.089 500.15 93.8002 487.674 81.819M523.759 121.569L487.674 81.819" stroke="white" stroke-width="12.0588"/>
<path d="M524.541 119.418L489.41 90.0168L448.25 139.198L483.381 168.599L524.541 119.418Z" fill="white"/>
<path d="M486.243 161.251L457.261 140.327L397.676 222.857L426.658 243.781L486.243 161.251Z" fill="white"/>
<path d="M422.319 235.589L406.202 223.953L339.795 315.932L355.912 327.568L422.319 235.589Z" fill="white"/>
<path d="M422.319 235.589L406.202 223.953L330.266 329.131L346.383 340.767L422.319 235.589Z" fill="white"/>
<path d="M162.424 35.8172L290.291 402.941C270.394 157.087 258.976 24.1997 226.738 13.7095C212.67 16.3891 173.813 28.448 162.424 35.8172Z" fill="white"/>
<path d="M162.424 35.8172L290.291 402.941C270.394 157.087 258.976 24.1997 226.738 13.7095M162.424 35.8172C173.813 28.448 212.67 16.3891 226.738 13.7095M162.424 35.8172L226.738 13.7095" stroke="white" stroke-width="12.0588"/>
<path d="M167.114 35.8172L224.396 16.3891L240.734 115.268L197.54 130.531L167.114 35.8172Z" fill="white"/>
<path d="M197.428 122.646L240.734 106.16L258.865 211.329L224.397 220.8L197.428 122.646Z" fill="white"/>
<path d="M231.326 214.642L254.206 206.651L280.55 318.768L261.382 324.035L231.326 214.642Z" fill="white"/>
<path d="M231.326 214.642L254.206 206.651L284.863 334.465L265.694 339.732L231.326 214.642Z" fill="white"/>
<path d="M418.952 35.8172L291.085 402.941C310.982 157.087 322.4 24.1997 354.638 13.7095C368.706 16.3891 407.563 28.448 418.952 35.8172Z" fill="white"/>
<path d="M418.952 35.8172L291.085 402.941C310.982 157.087 322.4 24.1997 354.638 13.7095M418.952 35.8172C407.563 28.448 368.706 16.3891 354.638 13.7095M418.952 35.8172L354.638 13.7095" stroke="white" stroke-width="12.0588"/>
<path d="M414.262 35.8172L356.98 16.3891L340.643 115.268L383.837 130.531L414.262 35.8172Z" fill="white"/>
<path d="M383.948 122.646L340.643 106.16L322.512 211.329L356.98 220.8L383.948 122.646Z" fill="white"/>
<path d="M350.051 214.642L327.171 206.651L300.827 318.768L319.995 324.035L350.051 214.642Z" fill="white"/>
<path d="M350.051 214.642L327.171 206.651L296.514 334.465L315.682 339.732L350.051 214.642Z" fill="white"/>
</svg>
